<svg width="57" height="44" viewBox="0 0 57 44" fill="none" xmlns="http://www.w3.org/2000/svg">
<path d="M3.64432 13.4325C1.06342 14.4505 -1.24535 12.1591 0.761512 9.41668C2.76838 6.67426 8.17551 2.49702 18.2767 4.88654C25.3315 6.5554 30.0229 12.8316 28.0111 13.8386C25.0937 15.2988 24.68 9.99537 17.7902 8.76127C14.9655 8.25532 12.9856 8.52309 10.2397 9.4171C7.36283 10.3537 6.30674 12.3824 3.64432 13.4325Z" fill="black"/>
<path d="M41.3806 9.89527C35.6985 13.2918 30.9515 12.0179 29.1534 10.4614C27.8447 9.32858 28.2903 6.56899 31.455 8.62084C35.0168 10.9301 40.014 8.05467 43.6102 5.15304C47.2065 2.2514 49.7957 -0.650253 53.8235 0.128258C57.8513 0.906769 58.2652 6.67842 53.8235 6.67842C49.3982 6.67842 45.8616 7.21669 41.3806 9.89527Z" fill="black"/>
<path fill-rule="evenodd" clip-rule="evenodd" d="M52.187 16.3488C51.5196 15.3476 50.7231 14.5167 49.7759 13.8777C48.1614 12.9403 46.0947 12.4717 43.6406 12.4717C40.7344 12.4717 38.4525 13.0469 36.7519 14.1759C35.0728 15.3049 33.8672 17.0092 33.1353 19.2673C32.9416 19.9063 32.7693 20.6093 32.6186 21.3549C32.5325 21.8449 32.4464 22.3349 32.3818 22.8887V23.0592V23.1444L32.3603 23.187C32.0805 24.6143 30.8104 25.7007 29.2604 25.7007C27.7319 25.7007 26.4618 24.6143 26.1604 23.187V23.1444V23.0592C26.1604 23.0592 26.1389 22.9526 26.1389 22.8887C26.0743 22.3562 25.9882 21.8449 25.9021 21.3549C25.7514 20.6093 25.5792 19.9063 25.3855 19.2673C24.6751 17.0092 23.4695 15.3049 21.7689 14.1759C20.0467 13.0469 17.7433 12.4717 14.8371 12.4717C12.3614 12.4717 10.3163 12.9403 8.68027 13.8564C7.7546 14.4954 6.93656 15.3263 6.26921 16.3275C4.5255 18.969 3.62135 22.9526 3.49219 28.2357C3.59982 33.5188 4.5255 37.5024 6.26921 40.144C6.93656 41.1452 7.73307 41.976 8.68027 42.6151C10.3163 43.5311 12.3614 43.9998 14.8371 43.9998C17.7433 43.9998 20.0252 43.4246 21.7258 42.2956C23.405 41.1665 24.6105 39.4623 25.3424 37.2042C25.5362 36.5651 25.7084 35.8621 25.8591 35.1165L25.8591 35.1164C25.9452 34.6265 26.0313 34.1366 26.0959 33.5827V33.4123V33.3271L26.1174 33.2845C26.3972 31.8572 27.6674 30.7708 29.2173 30.7708C30.7458 30.7708 32.0159 31.8572 32.3173 33.2845V33.3271V33.4123C32.3173 33.4123 32.3388 33.5188 32.3388 33.5827C32.4034 34.1153 32.4895 34.6266 32.5756 35.1165C32.7263 35.8621 32.8985 36.5651 33.0922 37.2042C33.8026 39.4623 35.0082 41.1665 36.7088 42.2956C38.388 43.4246 40.6914 43.9998 43.5976 43.9998C46.0732 43.9998 48.1183 43.5311 49.7544 42.6151C50.6801 41.976 51.4981 41.1452 52.1654 40.144C53.9092 37.5024 54.8133 33.5188 54.9425 28.2357C54.8348 22.9526 53.9092 18.969 52.1654 16.3275L52.187 16.3488ZM47.1295 28.5617L47.1285 28.5422C47.1285 28.5422 46.984 27.0159 46.9377 26.2441C46.8915 25.4723 46.8962 23.9384 46.8962 23.9384L46.9006 23.9187L46.8985 23.8798L46.8944 23.8021C46.8975 23.5488 46.9076 23.3243 46.9176 23.0998L46.9176 23.0998C46.9379 22.7579 46.9647 22.4352 46.9985 22.1414C47.13 21.1024 47.3951 20.3099 47.7944 19.7734C48.1991 19.2367 48.7649 18.9449 49.503 18.9072C50.1317 18.8751 50.6624 19.0623 51.1001 19.4587C51.356 19.7378 51.5783 20.1062 51.772 20.554C52.2785 21.7357 52.6096 23.5398 52.7642 25.9469C52.8587 28.357 52.725 30.1848 52.3458 31.4117C52.2004 31.8768 52.0127 32.2661 51.793 32.5695C51.3995 33.0083 50.8914 33.2484 50.2626 33.2805C49.5245 33.3182 48.9256 33.0858 48.461 32.5934C48.0019 32.1007 47.6546 31.3394 47.4198 30.3192C47.3552 30.0303 47.2945 29.7121 47.2383 29.3741C47.2046 29.1519 47.1704 28.9199 47.1412 28.6779C47.1396 28.6488 47.1316 28.6005 47.1316 28.6005L47.1295 28.5617ZM17.0585 28.5422L17.0596 28.5617L17.0616 28.6005C17.0616 28.6005 17.0696 28.6488 17.0712 28.6779C17.1004 28.9199 17.1346 29.1519 17.1683 29.3741C17.2245 29.7121 17.2852 30.0303 17.3498 30.3192C17.5846 31.3394 17.9319 32.1007 18.391 32.5934C18.8556 33.0858 19.4545 33.3182 20.1926 33.2805C20.8214 33.2484 21.3295 33.0083 21.723 32.5695C21.9427 32.2661 22.1305 31.8768 22.2758 31.4117C22.655 30.1848 22.7887 28.357 22.6942 25.9469C22.5396 23.5398 22.2085 21.7357 21.702 20.554C21.5084 20.1062 21.286 19.7378 21.0301 19.4587C20.5925 19.0623 20.0618 18.8751 19.433 18.9072C18.6949 18.9449 18.1292 19.2367 17.7244 19.7734C17.3252 20.3099 17.06 21.1024 16.9286 22.1414C16.8947 22.4352 16.8679 22.7579 16.8476 23.0998L16.8476 23.0998L16.8476 23.0999C16.8376 23.3244 16.8275 23.5488 16.8244 23.8021L16.8286 23.8798L16.8306 23.9187L16.8262 23.9384C16.8262 23.9384 16.8215 25.4723 16.8677 26.2441C16.914 27.0159 17.0585 28.5422 17.0585 28.5422Z" fill="black"/>
<path d="M54.5834 20.3924H50.9347C49 18.5949 46.3889 17.4907 43.5195 17.4907C40.1429 17.4907 37.1241 19.0199 35.1444 21.4086C32.0207 18.9828 27.5566 18.9786 24.4276 21.4086C22.4478 19.0199 19.4291 17.4907 16.0525 17.4907C13.1831 17.4907 10.5719 18.595 8.63722 20.3924H4.98872C4.13635 20.3924 3.44531 21.07 3.44531 21.9057C3.44531 22.7414 4.13635 23.4189 4.98872 23.4189H6.36379C5.65999 24.8231 5.26385 26.4012 5.26385 28.0686C5.26385 33.9013 10.1037 38.6465 16.0526 38.6465C22.0015 38.6465 26.8413 33.9013 26.8413 28.0686C26.8413 26.6451 26.5522 25.2866 26.0299 24.0457C28.1466 22.1386 31.4227 22.136 33.5423 24.0457C33.0199 25.2866 32.731 26.6451 32.731 28.0686C32.731 33.9013 37.5708 38.6465 43.5197 38.6465C49.4686 38.6465 54.3084 33.9013 54.3084 28.0686C54.3084 26.4012 53.9124 24.8231 53.2085 23.4189H54.5834C55.4358 23.4189 56.1268 22.7414 56.1268 21.9057C56.1268 21.07 55.4358 20.3924 54.5834 20.3924ZM16.0526 35.62C11.8057 35.62 8.35066 32.2325 8.35066 28.0686C8.35066 23.9048 11.8057 20.5172 16.0526 20.5172C20.2994 20.5172 23.7544 23.9048 23.7544 28.0686C23.7544 32.2325 20.2994 35.62 16.0526 35.62ZM43.5196 35.62C39.2728 35.62 35.8177 32.2325 35.8177 28.0686C35.8177 23.9048 39.2728 20.5172 43.5196 20.5172C47.7664 20.5172 51.2215 23.9048 51.2215 28.0686C51.2215 32.2325 47.7664 35.62 43.5196 35.62Z" fill="#FB23CB"/>
</svg>
