<svg width="34" height="34" viewBox="0 0 34 34" fill="none" xmlns="http://www.w3.org/2000/svg">
<g clip-path="url(#clip0_320_14548)">
<path d="M1.0625 0C1.34429 0 1.61454 0.111942 1.8138 0.311199C2.01306 0.510456 2.125 0.780707 2.125 1.0625V32.9375C2.125 33.2193 2.01306 33.4895 1.8138 33.6888C1.61454 33.8881 1.34429 34 1.0625 34C0.780707 34 0.510456 33.8881 0.311199 33.6888C0.111942 33.4895 0 33.2193 0 32.9375V1.0625C0 0.780707 0.111942 0.510456 0.311199 0.311199C0.510456 0.111942 0.780707 0 1.0625 0V0ZM4.25 3.1875C4.25 2.90571 4.36194 2.63546 4.5612 2.4362C4.76046 2.23694 5.03071 2.125 5.3125 2.125H13.8125C14.0943 2.125 14.3645 2.23694 14.5638 2.4362C14.7631 2.63546 14.875 2.90571 14.875 3.1875V5.3125C14.875 5.59429 14.7631 5.86454 14.5638 6.0638C14.3645 6.26306 14.0943 6.375 13.8125 6.375H5.3125C5.03071 6.375 4.76046 6.26306 4.5612 6.0638C4.36194 5.86454 4.25 5.59429 4.25 5.3125V3.1875ZM8.5 11.6875C8.5 11.4057 8.61194 11.1355 8.8112 10.9362C9.01046 10.7369 9.28071 10.625 9.5625 10.625H24.4375C24.7193 10.625 24.9895 10.7369 25.1888 10.9362C25.3881 11.1355 25.5 11.4057 25.5 11.6875V13.8125C25.5 14.0943 25.3881 14.3645 25.1888 14.5638C24.9895 14.7631 24.7193 14.875 24.4375 14.875H9.5625C9.28071 14.875 9.01046 14.7631 8.8112 14.5638C8.61194 14.3645 8.5 14.0943 8.5 13.8125V11.6875ZM12.75 20.1875C12.75 19.9057 12.8619 19.6355 13.0612 19.4362C13.2605 19.2369 13.5307 19.125 13.8125 19.125H26.5625C26.8443 19.125 27.1145 19.2369 27.3138 19.4362C27.5131 19.6355 27.625 19.9057 27.625 20.1875V22.3125C27.625 22.5943 27.5131 22.8645 27.3138 23.0638C27.1145 23.2631 26.8443 23.375 26.5625 23.375H13.8125C13.5307 23.375 13.2605 23.2631 13.0612 23.0638C12.8619 22.8645 12.75 22.5943 12.75 22.3125V20.1875ZM17 28.6875C17 28.4057 17.1119 28.1355 17.3112 27.9362C17.5105 27.7369 17.7807 27.625 18.0625 27.625H32.9375C33.2193 27.625 33.4895 27.7369 33.6888 27.9362C33.8881 28.1355 34 28.4057 34 28.6875V30.8125C34 31.0943 33.8881 31.3645 33.6888 31.5638C33.4895 31.7631 33.2193 31.875 32.9375 31.875H18.0625C17.7807 31.875 17.5105 31.7631 17.3112 31.5638C17.1119 31.3645 17 31.0943 17 30.8125V28.6875Z" fill="#21272A"/>
</g>
<defs>
<clipPath id="clip0_320_14548">
<rect width="34" height="34" fill="white"/>
</clipPath>
</defs>
</svg>
