<svg width="102" height="79" viewBox="0 0 102 79" fill="none" xmlns="http://www.w3.org/2000/svg">
<path d="M12.7695 28.188C16.8863 22.6056 26.991 20.1865 36.5342 23.8149C46.0775 27.4437 46.7334 37.4928 47.2012 41.1216C47.6691 44.75 50.6624 46.2389 52.7207 46.5181C54.7791 46.7972 56.744 45.7734 58.6152 43.2612C60.4863 40.7491 58.4283 38.6084 62.5449 29.9556C66.6617 21.3026 81.1638 20.8378 89.3037 24.7456C97.4436 28.6535 99.2217 43.6333 98.7539 53.0308C98.2861 62.4282 96.6018 78.9897 78.7314 78.9897C60.861 78.9897 59.6448 63.4512 59.2705 59.9155C58.8962 56.3801 57.4921 54.3335 52.7207 54.3335C47.9493 54.3336 47.3883 58.4274 46.7334 63.4517C46.0785 68.476 42.9904 78.5245 26.9912 78.9897C10.9921 79.4549 7.43657 64.7545 7.43652 50.9839C7.23013 45.5176 8.65278 33.7706 12.7695 28.188ZM41.3994 41.1226C39.9024 31.1668 33.5403 31.9107 31.6689 35.6323C30.9204 37.09 29.6477 41.6436 30.5459 48.1938C31.6686 56.3814 32.4175 57.8702 34.1016 59.3589C35.7857 60.8476 39.3413 60.4749 40.5576 58.521C41.7738 56.5668 42.8963 51.0777 41.3994 41.1226ZM96.1338 44.563C95.1046 36.4681 92.3909 30.2342 86.6836 34.1421C85.6544 34.8868 83.8017 38.4043 84.625 46.5171C85.6542 56.6586 86.7773 59.9154 91.0811 59.9155C95.3849 59.9155 97.163 52.6578 96.1338 44.563ZM8.18555 11.4399C13.7056 9.11394 21.0969 6.78749 31.6689 9.11377C42.2414 11.4403 49.8204 19.7221 49.9141 22.978C50.0073 26.2333 46.7327 25.2115 44.9551 22.978C43.1774 20.7444 37.0961 15.7199 29.6113 14.8823C22.1263 14.0449 12.9566 17.86 8.83984 22.5122C5.54654 26.2335 2.16536 24.3734 0.886719 22.978C-2.01373 19.6284 2.66535 13.766 8.18555 11.4399ZM77.9824 10.0435C82.8477 4.83299 90.6139 -2.3307 97.2568 0.739746C103.899 3.80996 102.029 8.64673 100.719 10.0435C99.4089 11.4397 94.2626 10.6956 85.4678 12.4634C76.673 14.2312 72.3689 21.489 62.5449 21.396C52.7209 21.3029 50.7564 17.4873 51.5049 15.6265C52.254 13.7669 56.8383 17.8599 60.2998 17.8599C65.9135 17.8597 73.1173 15.2538 77.9824 10.0435Z" fill="black"/>
</svg>
